M48
;DRILL file {KiCad 4.0.3-stable} date 11/17/16 00:27:37
;FORMAT={-:-/ absolute / inch / decimal}
FMAT,2
INCH,TZ
T1C0.013
T2C0.040
%
G90
G05
M72
T1
X3.5875Y-4.94
X3.91Y-4.84
X3.915Y-4.995
X3.945Y-5.13
X4.42Y-4.99
X4.45Y-5.9
X4.55Y-5.9
X4.74Y-4.88
T2
X3.075Y-3.775
X3.075Y-3.875
X3.075Y-3.975
X3.075Y-4.075
X3.075Y-4.175
X3.075Y-4.275
X3.075Y-4.375
X3.075Y-4.475
X3.075Y-4.575
X3.075Y-4.675
X3.075Y-4.775
X3.075Y-4.875
X3.075Y-4.975
X3.075Y-5.075
X3.075Y-5.175
X3.075Y-5.275
X3.075Y-5.375
X3.075Y-5.475
X3.075Y-5.575
X3.075Y-5.675
X3.075Y-5.775
X3.075Y-5.875
X3.075Y-5.975
X3.175Y-3.775
X3.175Y-3.875
X3.175Y-3.975
X3.175Y-4.075
X3.175Y-4.175
X3.175Y-4.275
X3.175Y-4.375
X3.175Y-4.475
X3.175Y-4.575
X3.175Y-4.675
X3.175Y-4.775
X3.175Y-4.875
X3.175Y-4.975
X3.175Y-5.075
X3.175Y-5.175
X3.175Y-5.275
X3.175Y-5.375
X3.175Y-5.475
X3.175Y-5.575
X3.175Y-5.675
X3.175Y-5.775
X3.175Y-5.875
X3.175Y-5.975
X3.3Y-4.675
X3.3Y-4.775
X3.3Y-4.875
X3.3Y-4.975
X3.3Y-5.075
X3.3Y-5.175
X3.47Y-4.6
X3.47Y-4.7
X3.47Y-5.149
X3.47Y-5.249
X3.57Y-4.6
X3.57Y-4.7
X3.57Y-5.149
X3.57Y-5.249
X3.67Y-4.6
X3.67Y-4.7
X3.67Y-5.149
X3.67Y-5.249
X3.77Y-4.6
X3.77Y-4.7
X3.77Y-5.149
X3.77Y-5.249
X3.87Y-4.6
X3.87Y-4.7
X3.87Y-5.149
X3.87Y-5.249
X4.28Y-4.6
X4.28Y-4.7
X4.28Y-5.149
X4.28Y-5.249
X4.38Y-4.6
X4.38Y-4.7
X4.38Y-5.149
X4.38Y-5.249
X4.48Y-4.6
X4.48Y-4.7
X4.48Y-5.149
X4.48Y-5.249
X4.58Y-4.6
X4.58Y-4.7
X4.58Y-5.149
X4.58Y-5.249
X4.68Y-4.6
X4.68Y-4.7
X4.68Y-5.149
X4.68Y-5.249
X4.975Y-3.775
X4.975Y-3.875
X4.975Y-3.975
X4.975Y-4.075
X4.975Y-4.175
X4.975Y-4.275
X4.975Y-4.375
X4.975Y-4.475
X4.975Y-4.575
X4.975Y-4.675
X4.975Y-4.775
X4.975Y-4.875
X4.975Y-4.975
X4.975Y-5.075
X4.975Y-5.175
X4.975Y-5.275
X4.975Y-5.375
X4.975Y-5.475
X4.975Y-5.575
X4.975Y-5.675
X4.975Y-5.775
X4.975Y-5.875
X4.975Y-5.975
X5.075Y-3.775
X5.075Y-3.875
X5.075Y-3.975
X5.075Y-4.075
X5.075Y-4.175
X5.075Y-4.275
X5.075Y-4.375
X5.075Y-4.475
X5.075Y-4.575
X5.075Y-4.675
X5.075Y-4.775
X5.075Y-4.875
X5.075Y-4.975
X5.075Y-5.075
X5.075Y-5.175
X5.075Y-5.275
X5.075Y-5.375
X5.075Y-5.475
X5.075Y-5.575
X5.075Y-5.675
X5.075Y-5.775
X5.075Y-5.875
X5.075Y-5.975
T0
M30
