G04 #@! TF.FileFunction,Legend,Top*
%FSLAX46Y46*%
G04 Gerber Fmt 4.6, Leading zero omitted, Abs format (unit mm)*
G04 Created by KiCad (PCBNEW 4.0.3-stable) date 11/17/16 00:27:15*
%MOMM*%
%LPD*%
G01*
G04 APERTURE LIST*
%ADD10C,0.100000*%
%ADD11C,0.150000*%
%ADD12R,1.000000X0.900000*%
%ADD13R,2.127200X2.127200*%
%ADD14O,2.127200X2.127200*%
%ADD15R,1.900000X0.850000*%
%ADD16R,2.432000X2.127200*%
%ADD17O,2.432000X2.127200*%
G04 APERTURE END LIST*
D10*
D11*
X98109488Y-123804438D02*
X97609488Y-123804438D01*
X97609488Y-124754438D02*
X98109488Y-124754438D01*
X119249000Y-124874000D02*
X118749000Y-124874000D01*
X118749000Y-125824000D02*
X119249000Y-125824000D01*
X97609488Y-125951000D02*
X98109488Y-125951000D01*
X98109488Y-125001000D02*
X97609488Y-125001000D01*
X118749000Y-126967000D02*
X119249000Y-126967000D01*
X119249000Y-126017000D02*
X118749000Y-126017000D01*
X87195488Y-126659438D02*
X87695488Y-126659438D01*
X87695488Y-125709438D02*
X87195488Y-125709438D01*
X108335000Y-127729000D02*
X108835000Y-127729000D01*
X108835000Y-126779000D02*
X108335000Y-126779000D01*
X97667000Y-127348000D02*
X98167000Y-127348000D01*
X98167000Y-126398000D02*
X97667000Y-126398000D01*
X118749000Y-128237000D02*
X119249000Y-128237000D01*
X119249000Y-127287000D02*
X118749000Y-127287000D01*
X97609488Y-123357438D02*
X98109488Y-123357438D01*
X98109488Y-122407438D02*
X97609488Y-122407438D01*
X118749000Y-124427000D02*
X119249000Y-124427000D01*
X119249000Y-123477000D02*
X118749000Y-123477000D01*
X130175000Y-153035000D02*
X130175000Y-94615000D01*
X125095000Y-153035000D02*
X125095000Y-97155000D01*
X130175000Y-153035000D02*
X125095000Y-153035000D01*
X130175000Y-94615000D02*
X127635000Y-94615000D01*
X126365000Y-94335000D02*
X124815000Y-94335000D01*
X127635000Y-94615000D02*
X127635000Y-97155000D01*
X127635000Y-97155000D02*
X125095000Y-97155000D01*
X124815000Y-94335000D02*
X124815000Y-95885000D01*
X81915000Y-153035000D02*
X81915000Y-94615000D01*
X76835000Y-153035000D02*
X76835000Y-97155000D01*
X81915000Y-153035000D02*
X76835000Y-153035000D01*
X81915000Y-94615000D02*
X79375000Y-94615000D01*
X78105000Y-94335000D02*
X76555000Y-94335000D01*
X79375000Y-94615000D02*
X79375000Y-97155000D01*
X79375000Y-97155000D02*
X76835000Y-97155000D01*
X76555000Y-94335000D02*
X76555000Y-95885000D01*
X94852488Y-121162438D02*
X90452488Y-121162438D01*
X96427488Y-126687438D02*
X90452488Y-126687438D01*
X115992000Y-122254000D02*
X111592000Y-122254000D01*
X117567000Y-127779000D02*
X111592000Y-127779000D01*
X85090000Y-120015000D02*
X85090000Y-132715000D01*
X85090000Y-132715000D02*
X82550000Y-132715000D01*
X82550000Y-132715000D02*
X82550000Y-120015000D01*
X85370000Y-117195000D02*
X85370000Y-118745000D01*
X85090000Y-120015000D02*
X82550000Y-120015000D01*
X82270000Y-118745000D02*
X82270000Y-117195000D01*
X82270000Y-117195000D02*
X85370000Y-117195000D01*
X87884000Y-132308600D02*
X87884000Y-131800600D01*
X88392000Y-132308600D02*
X88392000Y-131800600D01*
X90424000Y-132308600D02*
X90424000Y-131800600D01*
X90932000Y-132308600D02*
X90932000Y-131800600D01*
X98552000Y-132308600D02*
X98552000Y-131800600D01*
X98044000Y-132308600D02*
X98044000Y-131800600D01*
X92964000Y-132308600D02*
X92964000Y-131800600D01*
X93472000Y-132308600D02*
X93472000Y-131800600D01*
X95504000Y-132308600D02*
X95504000Y-131800600D01*
X96012000Y-132308600D02*
X96012000Y-131800600D01*
X87884000Y-134848600D02*
X87884000Y-134340600D01*
X88392000Y-134848600D02*
X88392000Y-134340600D01*
X98552000Y-134848600D02*
X98552000Y-134340600D01*
X98044000Y-134848600D02*
X98044000Y-134340600D01*
X96012000Y-134848600D02*
X96012000Y-134340600D01*
X95504000Y-134848600D02*
X95504000Y-134340600D01*
X90424000Y-134848600D02*
X90424000Y-134340600D01*
X90932000Y-134848600D02*
X90932000Y-134340600D01*
X92964000Y-134848600D02*
X92964000Y-134340600D01*
X93472000Y-134848600D02*
X93472000Y-134340600D01*
X99848000Y-130784600D02*
X99848000Y-129634600D01*
X99848000Y-129634600D02*
X98298000Y-129634600D01*
X98425000Y-137388600D02*
X98425000Y-143357600D01*
X98425000Y-143357600D02*
X98171000Y-143357600D01*
X98171000Y-143357600D02*
X98171000Y-137515600D01*
X98171000Y-137515600D02*
X98298000Y-137515600D01*
X98298000Y-137515600D02*
X98298000Y-143357600D01*
X89408000Y-134848600D02*
X89408000Y-137388600D01*
X89408000Y-134848600D02*
X86868000Y-134848600D01*
X88392000Y-137388600D02*
X88392000Y-143484600D01*
X88392000Y-143484600D02*
X87884000Y-143484600D01*
X87884000Y-143484600D02*
X87884000Y-137388600D01*
X86868000Y-137388600D02*
X89408000Y-137388600D01*
X86868000Y-134848600D02*
X86868000Y-137388600D01*
X94488000Y-134848600D02*
X94488000Y-137388600D01*
X94488000Y-134848600D02*
X91948000Y-134848600D01*
X91948000Y-134848600D02*
X91948000Y-137388600D01*
X93472000Y-137388600D02*
X93472000Y-143484600D01*
X93472000Y-143484600D02*
X92964000Y-143484600D01*
X92964000Y-143484600D02*
X92964000Y-137388600D01*
X91948000Y-137388600D02*
X94488000Y-137388600D01*
X89408000Y-137388600D02*
X91948000Y-137388600D01*
X90424000Y-143484600D02*
X90424000Y-137388600D01*
X90932000Y-143484600D02*
X90424000Y-143484600D01*
X90932000Y-137388600D02*
X90932000Y-143484600D01*
X89408000Y-134848600D02*
X89408000Y-137388600D01*
X91948000Y-134848600D02*
X89408000Y-134848600D01*
X91948000Y-134848600D02*
X91948000Y-137388600D01*
X97028000Y-134848600D02*
X97028000Y-137388600D01*
X97028000Y-134848600D02*
X94488000Y-134848600D01*
X94488000Y-134848600D02*
X94488000Y-137388600D01*
X96012000Y-137388600D02*
X96012000Y-143484600D01*
X96012000Y-143484600D02*
X95504000Y-143484600D01*
X95504000Y-143484600D02*
X95504000Y-137388600D01*
X94488000Y-137388600D02*
X97028000Y-137388600D01*
X97028000Y-137388600D02*
X99568000Y-137388600D01*
X98044000Y-143484600D02*
X98044000Y-137388600D01*
X98552000Y-143484600D02*
X98044000Y-143484600D01*
X98552000Y-137388600D02*
X98552000Y-143484600D01*
X97028000Y-134848600D02*
X97028000Y-137388600D01*
X99568000Y-134848600D02*
X97028000Y-134848600D01*
X99568000Y-134848600D02*
X99568000Y-137388600D01*
X119126000Y-117856000D02*
X119126000Y-118364000D01*
X118618000Y-117856000D02*
X118618000Y-118364000D01*
X116586000Y-117856000D02*
X116586000Y-118364000D01*
X116078000Y-117856000D02*
X116078000Y-118364000D01*
X108458000Y-117856000D02*
X108458000Y-118364000D01*
X108966000Y-117856000D02*
X108966000Y-118364000D01*
X114046000Y-117856000D02*
X114046000Y-118364000D01*
X113538000Y-117856000D02*
X113538000Y-118364000D01*
X111506000Y-117856000D02*
X111506000Y-118364000D01*
X110998000Y-117856000D02*
X110998000Y-118364000D01*
X119126000Y-115316000D02*
X119126000Y-115824000D01*
X118618000Y-115316000D02*
X118618000Y-115824000D01*
X108458000Y-115316000D02*
X108458000Y-115824000D01*
X108966000Y-115316000D02*
X108966000Y-115824000D01*
X110998000Y-115316000D02*
X110998000Y-115824000D01*
X111506000Y-115316000D02*
X111506000Y-115824000D01*
X116586000Y-115316000D02*
X116586000Y-115824000D01*
X116078000Y-115316000D02*
X116078000Y-115824000D01*
X114046000Y-115316000D02*
X114046000Y-115824000D01*
X113538000Y-115316000D02*
X113538000Y-115824000D01*
X107162000Y-119380000D02*
X107162000Y-120530000D01*
X107162000Y-120530000D02*
X108712000Y-120530000D01*
X108585000Y-112776000D02*
X108585000Y-106807000D01*
X108585000Y-106807000D02*
X108839000Y-106807000D01*
X108839000Y-106807000D02*
X108839000Y-112649000D01*
X108839000Y-112649000D02*
X108712000Y-112649000D01*
X108712000Y-112649000D02*
X108712000Y-106807000D01*
X117602000Y-115316000D02*
X117602000Y-112776000D01*
X117602000Y-115316000D02*
X120142000Y-115316000D01*
X118618000Y-112776000D02*
X118618000Y-106680000D01*
X118618000Y-106680000D02*
X119126000Y-106680000D01*
X119126000Y-106680000D02*
X119126000Y-112776000D01*
X120142000Y-112776000D02*
X117602000Y-112776000D01*
X120142000Y-115316000D02*
X120142000Y-112776000D01*
X112522000Y-115316000D02*
X112522000Y-112776000D01*
X112522000Y-115316000D02*
X115062000Y-115316000D01*
X115062000Y-115316000D02*
X115062000Y-112776000D01*
X113538000Y-112776000D02*
X113538000Y-106680000D01*
X113538000Y-106680000D02*
X114046000Y-106680000D01*
X114046000Y-106680000D02*
X114046000Y-112776000D01*
X115062000Y-112776000D02*
X112522000Y-112776000D01*
X117602000Y-112776000D02*
X115062000Y-112776000D01*
X116586000Y-106680000D02*
X116586000Y-112776000D01*
X116078000Y-106680000D02*
X116586000Y-106680000D01*
X116078000Y-112776000D02*
X116078000Y-106680000D01*
X117602000Y-115316000D02*
X117602000Y-112776000D01*
X115062000Y-115316000D02*
X117602000Y-115316000D01*
X115062000Y-115316000D02*
X115062000Y-112776000D01*
X109982000Y-115316000D02*
X109982000Y-112776000D01*
X109982000Y-115316000D02*
X112522000Y-115316000D01*
X112522000Y-115316000D02*
X112522000Y-112776000D01*
X110998000Y-112776000D02*
X110998000Y-106680000D01*
X110998000Y-106680000D02*
X111506000Y-106680000D01*
X111506000Y-106680000D02*
X111506000Y-112776000D01*
X112522000Y-112776000D02*
X109982000Y-112776000D01*
X109982000Y-112776000D02*
X107442000Y-112776000D01*
X108966000Y-106680000D02*
X108966000Y-112776000D01*
X108458000Y-106680000D02*
X108966000Y-106680000D01*
X108458000Y-112776000D02*
X108458000Y-106680000D01*
X109982000Y-115316000D02*
X109982000Y-112776000D01*
X107442000Y-115316000D02*
X109982000Y-115316000D01*
X107442000Y-115316000D02*
X107442000Y-112776000D01*
X98552000Y-117856000D02*
X98552000Y-118364000D01*
X98044000Y-117856000D02*
X98044000Y-118364000D01*
X96012000Y-117856000D02*
X96012000Y-118364000D01*
X95504000Y-117856000D02*
X95504000Y-118364000D01*
X87884000Y-117856000D02*
X87884000Y-118364000D01*
X88392000Y-117856000D02*
X88392000Y-118364000D01*
X93472000Y-117856000D02*
X93472000Y-118364000D01*
X92964000Y-117856000D02*
X92964000Y-118364000D01*
X90932000Y-117856000D02*
X90932000Y-118364000D01*
X90424000Y-117856000D02*
X90424000Y-118364000D01*
X98552000Y-115316000D02*
X98552000Y-115824000D01*
X98044000Y-115316000D02*
X98044000Y-115824000D01*
X87884000Y-115316000D02*
X87884000Y-115824000D01*
X88392000Y-115316000D02*
X88392000Y-115824000D01*
X90424000Y-115316000D02*
X90424000Y-115824000D01*
X90932000Y-115316000D02*
X90932000Y-115824000D01*
X96012000Y-115316000D02*
X96012000Y-115824000D01*
X95504000Y-115316000D02*
X95504000Y-115824000D01*
X93472000Y-115316000D02*
X93472000Y-115824000D01*
X92964000Y-115316000D02*
X92964000Y-115824000D01*
X86588000Y-119380000D02*
X86588000Y-120530000D01*
X86588000Y-120530000D02*
X88138000Y-120530000D01*
X88011000Y-112776000D02*
X88011000Y-106807000D01*
X88011000Y-106807000D02*
X88265000Y-106807000D01*
X88265000Y-106807000D02*
X88265000Y-112649000D01*
X88265000Y-112649000D02*
X88138000Y-112649000D01*
X88138000Y-112649000D02*
X88138000Y-106807000D01*
X97028000Y-115316000D02*
X97028000Y-112776000D01*
X97028000Y-115316000D02*
X99568000Y-115316000D01*
X98044000Y-112776000D02*
X98044000Y-106680000D01*
X98044000Y-106680000D02*
X98552000Y-106680000D01*
X98552000Y-106680000D02*
X98552000Y-112776000D01*
X99568000Y-112776000D02*
X97028000Y-112776000D01*
X99568000Y-115316000D02*
X99568000Y-112776000D01*
X91948000Y-115316000D02*
X91948000Y-112776000D01*
X91948000Y-115316000D02*
X94488000Y-115316000D01*
X94488000Y-115316000D02*
X94488000Y-112776000D01*
X92964000Y-112776000D02*
X92964000Y-106680000D01*
X92964000Y-106680000D02*
X93472000Y-106680000D01*
X93472000Y-106680000D02*
X93472000Y-112776000D01*
X94488000Y-112776000D02*
X91948000Y-112776000D01*
X97028000Y-112776000D02*
X94488000Y-112776000D01*
X96012000Y-106680000D02*
X96012000Y-112776000D01*
X95504000Y-106680000D02*
X96012000Y-106680000D01*
X95504000Y-112776000D02*
X95504000Y-106680000D01*
X97028000Y-115316000D02*
X97028000Y-112776000D01*
X94488000Y-115316000D02*
X97028000Y-115316000D01*
X94488000Y-115316000D02*
X94488000Y-112776000D01*
X89408000Y-115316000D02*
X89408000Y-112776000D01*
X89408000Y-115316000D02*
X91948000Y-115316000D01*
X91948000Y-115316000D02*
X91948000Y-112776000D01*
X90424000Y-112776000D02*
X90424000Y-106680000D01*
X90424000Y-106680000D02*
X90932000Y-106680000D01*
X90932000Y-106680000D02*
X90932000Y-112776000D01*
X91948000Y-112776000D02*
X89408000Y-112776000D01*
X89408000Y-112776000D02*
X86868000Y-112776000D01*
X88392000Y-106680000D02*
X88392000Y-112776000D01*
X87884000Y-106680000D02*
X88392000Y-106680000D01*
X87884000Y-112776000D02*
X87884000Y-106680000D01*
X89408000Y-115316000D02*
X89408000Y-112776000D01*
X86868000Y-115316000D02*
X89408000Y-115316000D01*
X86868000Y-115316000D02*
X86868000Y-112776000D01*
X108458000Y-132308600D02*
X108458000Y-131800600D01*
X108966000Y-132308600D02*
X108966000Y-131800600D01*
X110998000Y-132308600D02*
X110998000Y-131800600D01*
X111506000Y-132308600D02*
X111506000Y-131800600D01*
X119126000Y-132308600D02*
X119126000Y-131800600D01*
X118618000Y-132308600D02*
X118618000Y-131800600D01*
X113538000Y-132308600D02*
X113538000Y-131800600D01*
X114046000Y-132308600D02*
X114046000Y-131800600D01*
X116078000Y-132308600D02*
X116078000Y-131800600D01*
X116586000Y-132308600D02*
X116586000Y-131800600D01*
X108458000Y-134848600D02*
X108458000Y-134340600D01*
X108966000Y-134848600D02*
X108966000Y-134340600D01*
X119126000Y-134848600D02*
X119126000Y-134340600D01*
X118618000Y-134848600D02*
X118618000Y-134340600D01*
X116586000Y-134848600D02*
X116586000Y-134340600D01*
X116078000Y-134848600D02*
X116078000Y-134340600D01*
X110998000Y-134848600D02*
X110998000Y-134340600D01*
X111506000Y-134848600D02*
X111506000Y-134340600D01*
X113538000Y-134848600D02*
X113538000Y-134340600D01*
X114046000Y-134848600D02*
X114046000Y-134340600D01*
X120422000Y-130784600D02*
X120422000Y-129634600D01*
X120422000Y-129634600D02*
X118872000Y-129634600D01*
X118999000Y-137388600D02*
X118999000Y-143357600D01*
X118999000Y-143357600D02*
X118745000Y-143357600D01*
X118745000Y-143357600D02*
X118745000Y-137515600D01*
X118745000Y-137515600D02*
X118872000Y-137515600D01*
X118872000Y-137515600D02*
X118872000Y-143357600D01*
X109982000Y-134848600D02*
X109982000Y-137388600D01*
X109982000Y-134848600D02*
X107442000Y-134848600D01*
X108966000Y-137388600D02*
X108966000Y-143484600D01*
X108966000Y-143484600D02*
X108458000Y-143484600D01*
X108458000Y-143484600D02*
X108458000Y-137388600D01*
X107442000Y-137388600D02*
X109982000Y-137388600D01*
X107442000Y-134848600D02*
X107442000Y-137388600D01*
X115062000Y-134848600D02*
X115062000Y-137388600D01*
X115062000Y-134848600D02*
X112522000Y-134848600D01*
X112522000Y-134848600D02*
X112522000Y-137388600D01*
X114046000Y-137388600D02*
X114046000Y-143484600D01*
X114046000Y-143484600D02*
X113538000Y-143484600D01*
X113538000Y-143484600D02*
X113538000Y-137388600D01*
X112522000Y-137388600D02*
X115062000Y-137388600D01*
X109982000Y-137388600D02*
X112522000Y-137388600D01*
X110998000Y-143484600D02*
X110998000Y-137388600D01*
X111506000Y-143484600D02*
X110998000Y-143484600D01*
X111506000Y-137388600D02*
X111506000Y-143484600D01*
X109982000Y-134848600D02*
X109982000Y-137388600D01*
X112522000Y-134848600D02*
X109982000Y-134848600D01*
X112522000Y-134848600D02*
X112522000Y-137388600D01*
X117602000Y-134848600D02*
X117602000Y-137388600D01*
X117602000Y-134848600D02*
X115062000Y-134848600D01*
X115062000Y-134848600D02*
X115062000Y-137388600D01*
X116586000Y-137388600D02*
X116586000Y-143484600D01*
X116586000Y-143484600D02*
X116078000Y-143484600D01*
X116078000Y-143484600D02*
X116078000Y-137388600D01*
X115062000Y-137388600D02*
X117602000Y-137388600D01*
X117602000Y-137388600D02*
X120142000Y-137388600D01*
X118618000Y-143484600D02*
X118618000Y-137388600D01*
X119126000Y-143484600D02*
X118618000Y-143484600D01*
X119126000Y-137388600D02*
X119126000Y-143484600D01*
X117602000Y-134848600D02*
X117602000Y-137388600D01*
X120142000Y-134848600D02*
X117602000Y-134848600D01*
X120142000Y-134848600D02*
X120142000Y-137388600D01*
X99782334Y-124563143D02*
X99734715Y-124610762D01*
X99591858Y-124658381D01*
X99496620Y-124658381D01*
X99353762Y-124610762D01*
X99258524Y-124515524D01*
X99210905Y-124420286D01*
X99163286Y-124229810D01*
X99163286Y-124086952D01*
X99210905Y-123896476D01*
X99258524Y-123801238D01*
X99353762Y-123706000D01*
X99496620Y-123658381D01*
X99591858Y-123658381D01*
X99734715Y-123706000D01*
X99782334Y-123753619D01*
X100734715Y-124658381D02*
X100163286Y-124658381D01*
X100449000Y-124658381D02*
X100449000Y-123658381D01*
X100353762Y-123801238D01*
X100258524Y-123896476D01*
X100163286Y-123944095D01*
X120864334Y-125579143D02*
X120816715Y-125626762D01*
X120673858Y-125674381D01*
X120578620Y-125674381D01*
X120435762Y-125626762D01*
X120340524Y-125531524D01*
X120292905Y-125436286D01*
X120245286Y-125245810D01*
X120245286Y-125102952D01*
X120292905Y-124912476D01*
X120340524Y-124817238D01*
X120435762Y-124722000D01*
X120578620Y-124674381D01*
X120673858Y-124674381D01*
X120816715Y-124722000D01*
X120864334Y-124769619D01*
X121245286Y-124769619D02*
X121292905Y-124722000D01*
X121388143Y-124674381D01*
X121626239Y-124674381D01*
X121721477Y-124722000D01*
X121769096Y-124769619D01*
X121816715Y-124864857D01*
X121816715Y-124960095D01*
X121769096Y-125102952D01*
X121197667Y-125674381D01*
X121816715Y-125674381D01*
X99782334Y-125833143D02*
X99734715Y-125880762D01*
X99591858Y-125928381D01*
X99496620Y-125928381D01*
X99353762Y-125880762D01*
X99258524Y-125785524D01*
X99210905Y-125690286D01*
X99163286Y-125499810D01*
X99163286Y-125356952D01*
X99210905Y-125166476D01*
X99258524Y-125071238D01*
X99353762Y-124976000D01*
X99496620Y-124928381D01*
X99591858Y-124928381D01*
X99734715Y-124976000D01*
X99782334Y-125023619D01*
X100115667Y-124928381D02*
X100734715Y-124928381D01*
X100401381Y-125309333D01*
X100544239Y-125309333D01*
X100639477Y-125356952D01*
X100687096Y-125404571D01*
X100734715Y-125499810D01*
X100734715Y-125737905D01*
X100687096Y-125833143D01*
X100639477Y-125880762D01*
X100544239Y-125928381D01*
X100258524Y-125928381D01*
X100163286Y-125880762D01*
X100115667Y-125833143D01*
X120864334Y-126849143D02*
X120816715Y-126896762D01*
X120673858Y-126944381D01*
X120578620Y-126944381D01*
X120435762Y-126896762D01*
X120340524Y-126801524D01*
X120292905Y-126706286D01*
X120245286Y-126515810D01*
X120245286Y-126372952D01*
X120292905Y-126182476D01*
X120340524Y-126087238D01*
X120435762Y-125992000D01*
X120578620Y-125944381D01*
X120673858Y-125944381D01*
X120816715Y-125992000D01*
X120864334Y-126039619D01*
X121721477Y-126277714D02*
X121721477Y-126944381D01*
X121483381Y-125896762D02*
X121245286Y-126611048D01*
X121864334Y-126611048D01*
X87278822Y-125325143D02*
X87231203Y-125372762D01*
X87088346Y-125420381D01*
X86993108Y-125420381D01*
X86850250Y-125372762D01*
X86755012Y-125277524D01*
X86707393Y-125182286D01*
X86659774Y-124991810D01*
X86659774Y-124848952D01*
X86707393Y-124658476D01*
X86755012Y-124563238D01*
X86850250Y-124468000D01*
X86993108Y-124420381D01*
X87088346Y-124420381D01*
X87231203Y-124468000D01*
X87278822Y-124515619D01*
X88183584Y-124420381D02*
X87707393Y-124420381D01*
X87659774Y-124896571D01*
X87707393Y-124848952D01*
X87802631Y-124801333D01*
X88040727Y-124801333D01*
X88135965Y-124848952D01*
X88183584Y-124896571D01*
X88231203Y-124991810D01*
X88231203Y-125229905D01*
X88183584Y-125325143D01*
X88135965Y-125372762D01*
X88040727Y-125420381D01*
X87802631Y-125420381D01*
X87707393Y-125372762D01*
X87659774Y-125325143D01*
X108418334Y-126341143D02*
X108370715Y-126388762D01*
X108227858Y-126436381D01*
X108132620Y-126436381D01*
X107989762Y-126388762D01*
X107894524Y-126293524D01*
X107846905Y-126198286D01*
X107799286Y-126007810D01*
X107799286Y-125864952D01*
X107846905Y-125674476D01*
X107894524Y-125579238D01*
X107989762Y-125484000D01*
X108132620Y-125436381D01*
X108227858Y-125436381D01*
X108370715Y-125484000D01*
X108418334Y-125531619D01*
X109275477Y-125436381D02*
X109085000Y-125436381D01*
X108989762Y-125484000D01*
X108942143Y-125531619D01*
X108846905Y-125674476D01*
X108799286Y-125864952D01*
X108799286Y-126245905D01*
X108846905Y-126341143D01*
X108894524Y-126388762D01*
X108989762Y-126436381D01*
X109180239Y-126436381D01*
X109275477Y-126388762D01*
X109323096Y-126341143D01*
X109370715Y-126245905D01*
X109370715Y-126007810D01*
X109323096Y-125912571D01*
X109275477Y-125864952D01*
X109180239Y-125817333D01*
X108989762Y-125817333D01*
X108894524Y-125864952D01*
X108846905Y-125912571D01*
X108799286Y-126007810D01*
X97750334Y-128627143D02*
X97702715Y-128674762D01*
X97559858Y-128722381D01*
X97464620Y-128722381D01*
X97321762Y-128674762D01*
X97226524Y-128579524D01*
X97178905Y-128484286D01*
X97131286Y-128293810D01*
X97131286Y-128150952D01*
X97178905Y-127960476D01*
X97226524Y-127865238D01*
X97321762Y-127770000D01*
X97464620Y-127722381D01*
X97559858Y-127722381D01*
X97702715Y-127770000D01*
X97750334Y-127817619D01*
X98083667Y-127722381D02*
X98750334Y-127722381D01*
X98321762Y-128722381D01*
X120864334Y-128119143D02*
X120816715Y-128166762D01*
X120673858Y-128214381D01*
X120578620Y-128214381D01*
X120435762Y-128166762D01*
X120340524Y-128071524D01*
X120292905Y-127976286D01*
X120245286Y-127785810D01*
X120245286Y-127642952D01*
X120292905Y-127452476D01*
X120340524Y-127357238D01*
X120435762Y-127262000D01*
X120578620Y-127214381D01*
X120673858Y-127214381D01*
X120816715Y-127262000D01*
X120864334Y-127309619D01*
X121435762Y-127642952D02*
X121340524Y-127595333D01*
X121292905Y-127547714D01*
X121245286Y-127452476D01*
X121245286Y-127404857D01*
X121292905Y-127309619D01*
X121340524Y-127262000D01*
X121435762Y-127214381D01*
X121626239Y-127214381D01*
X121721477Y-127262000D01*
X121769096Y-127309619D01*
X121816715Y-127404857D01*
X121816715Y-127452476D01*
X121769096Y-127547714D01*
X121721477Y-127595333D01*
X121626239Y-127642952D01*
X121435762Y-127642952D01*
X121340524Y-127690571D01*
X121292905Y-127738190D01*
X121245286Y-127833429D01*
X121245286Y-128023905D01*
X121292905Y-128119143D01*
X121340524Y-128166762D01*
X121435762Y-128214381D01*
X121626239Y-128214381D01*
X121721477Y-128166762D01*
X121769096Y-128119143D01*
X121816715Y-128023905D01*
X121816715Y-127833429D01*
X121769096Y-127738190D01*
X121721477Y-127690571D01*
X121626239Y-127642952D01*
X97750334Y-122150143D02*
X97702715Y-122197762D01*
X97559858Y-122245381D01*
X97464620Y-122245381D01*
X97321762Y-122197762D01*
X97226524Y-122102524D01*
X97178905Y-122007286D01*
X97131286Y-121816810D01*
X97131286Y-121673952D01*
X97178905Y-121483476D01*
X97226524Y-121388238D01*
X97321762Y-121293000D01*
X97464620Y-121245381D01*
X97559858Y-121245381D01*
X97702715Y-121293000D01*
X97750334Y-121340619D01*
X98226524Y-122245381D02*
X98417000Y-122245381D01*
X98512239Y-122197762D01*
X98559858Y-122150143D01*
X98655096Y-122007286D01*
X98702715Y-121816810D01*
X98702715Y-121435857D01*
X98655096Y-121340619D01*
X98607477Y-121293000D01*
X98512239Y-121245381D01*
X98321762Y-121245381D01*
X98226524Y-121293000D01*
X98178905Y-121340619D01*
X98131286Y-121435857D01*
X98131286Y-121673952D01*
X98178905Y-121769190D01*
X98226524Y-121816810D01*
X98321762Y-121864429D01*
X98512239Y-121864429D01*
X98607477Y-121816810D01*
X98655096Y-121769190D01*
X98702715Y-121673952D01*
X118737143Y-123166143D02*
X118689524Y-123213762D01*
X118546667Y-123261381D01*
X118451429Y-123261381D01*
X118308571Y-123213762D01*
X118213333Y-123118524D01*
X118165714Y-123023286D01*
X118118095Y-122832810D01*
X118118095Y-122689952D01*
X118165714Y-122499476D01*
X118213333Y-122404238D01*
X118308571Y-122309000D01*
X118451429Y-122261381D01*
X118546667Y-122261381D01*
X118689524Y-122309000D01*
X118737143Y-122356619D01*
X119689524Y-123261381D02*
X119118095Y-123261381D01*
X119403809Y-123261381D02*
X119403809Y-122261381D01*
X119308571Y-122404238D01*
X119213333Y-122499476D01*
X119118095Y-122547095D01*
X120308571Y-122261381D02*
X120403810Y-122261381D01*
X120499048Y-122309000D01*
X120546667Y-122356619D01*
X120594286Y-122451857D01*
X120641905Y-122642333D01*
X120641905Y-122880429D01*
X120594286Y-123070905D01*
X120546667Y-123166143D01*
X120499048Y-123213762D01*
X120403810Y-123261381D01*
X120308571Y-123261381D01*
X120213333Y-123213762D01*
X120165714Y-123166143D01*
X120118095Y-123070905D01*
X120070476Y-122880429D01*
X120070476Y-122642333D01*
X120118095Y-122451857D01*
X120165714Y-122356619D01*
X120213333Y-122309000D01*
X120308571Y-122261381D01*
X122959905Y-98877381D02*
X122959905Y-97877381D01*
X123340858Y-97877381D01*
X123436096Y-97925000D01*
X123483715Y-97972619D01*
X123531334Y-98067857D01*
X123531334Y-98210714D01*
X123483715Y-98305952D01*
X123436096Y-98353571D01*
X123340858Y-98401190D01*
X122959905Y-98401190D01*
X124102762Y-98305952D02*
X124007524Y-98258333D01*
X123959905Y-98210714D01*
X123912286Y-98115476D01*
X123912286Y-98067857D01*
X123959905Y-97972619D01*
X124007524Y-97925000D01*
X124102762Y-97877381D01*
X124293239Y-97877381D01*
X124388477Y-97925000D01*
X124436096Y-97972619D01*
X124483715Y-98067857D01*
X124483715Y-98115476D01*
X124436096Y-98210714D01*
X124388477Y-98258333D01*
X124293239Y-98305952D01*
X124102762Y-98305952D01*
X124007524Y-98353571D01*
X123959905Y-98401190D01*
X123912286Y-98496429D01*
X123912286Y-98686905D01*
X123959905Y-98782143D01*
X124007524Y-98829762D01*
X124102762Y-98877381D01*
X124293239Y-98877381D01*
X124388477Y-98829762D01*
X124436096Y-98782143D01*
X124483715Y-98686905D01*
X124483715Y-98496429D01*
X124436096Y-98401190D01*
X124388477Y-98353571D01*
X124293239Y-98305952D01*
X82700905Y-98877381D02*
X82700905Y-97877381D01*
X83081858Y-97877381D01*
X83177096Y-97925000D01*
X83224715Y-97972619D01*
X83272334Y-98067857D01*
X83272334Y-98210714D01*
X83224715Y-98305952D01*
X83177096Y-98353571D01*
X83081858Y-98401190D01*
X82700905Y-98401190D01*
X83748524Y-98877381D02*
X83939000Y-98877381D01*
X84034239Y-98829762D01*
X84081858Y-98782143D01*
X84177096Y-98639286D01*
X84224715Y-98448810D01*
X84224715Y-98067857D01*
X84177096Y-97972619D01*
X84129477Y-97925000D01*
X84034239Y-97877381D01*
X83843762Y-97877381D01*
X83748524Y-97925000D01*
X83700905Y-97972619D01*
X83653286Y-98067857D01*
X83653286Y-98305952D01*
X83700905Y-98401190D01*
X83748524Y-98448810D01*
X83843762Y-98496429D01*
X84034239Y-98496429D01*
X84129477Y-98448810D01*
X84177096Y-98401190D01*
X84224715Y-98305952D01*
X94938583Y-127033819D02*
X94938583Y-127843343D01*
X94986202Y-127938581D01*
X95033821Y-127986200D01*
X95129059Y-128033819D01*
X95319536Y-128033819D01*
X95414774Y-127986200D01*
X95462393Y-127938581D01*
X95510012Y-127843343D01*
X95510012Y-127033819D01*
X96510012Y-128033819D02*
X95938583Y-128033819D01*
X96224297Y-128033819D02*
X96224297Y-127033819D01*
X96129059Y-127176676D01*
X96033821Y-127271914D01*
X95938583Y-127319533D01*
X115951095Y-128103381D02*
X115951095Y-128912905D01*
X115998714Y-129008143D01*
X116046333Y-129055762D01*
X116141571Y-129103381D01*
X116332048Y-129103381D01*
X116427286Y-129055762D01*
X116474905Y-129008143D01*
X116522524Y-128912905D01*
X116522524Y-128103381D01*
X116951095Y-128198619D02*
X116998714Y-128151000D01*
X117093952Y-128103381D01*
X117332048Y-128103381D01*
X117427286Y-128151000D01*
X117474905Y-128198619D01*
X117522524Y-128293857D01*
X117522524Y-128389095D01*
X117474905Y-128531952D01*
X116903476Y-129103381D01*
X117522524Y-129103381D01*
X82954905Y-134310381D02*
X82954905Y-133310381D01*
X83335858Y-133310381D01*
X83431096Y-133358000D01*
X83478715Y-133405619D01*
X83526334Y-133500857D01*
X83526334Y-133643714D01*
X83478715Y-133738952D01*
X83431096Y-133786571D01*
X83335858Y-133834190D01*
X82954905Y-133834190D01*
X83859667Y-133310381D02*
X84478715Y-133310381D01*
X84145381Y-133691333D01*
X84288239Y-133691333D01*
X84383477Y-133738952D01*
X84431096Y-133786571D01*
X84478715Y-133881810D01*
X84478715Y-134119905D01*
X84431096Y-134215143D01*
X84383477Y-134262762D01*
X84288239Y-134310381D01*
X84002524Y-134310381D01*
X83907286Y-134262762D01*
X83859667Y-134215143D01*
X101544381Y-131548095D02*
X100544381Y-131548095D01*
X100544381Y-131167142D01*
X100592000Y-131071904D01*
X100639619Y-131024285D01*
X100734857Y-130976666D01*
X100877714Y-130976666D01*
X100972952Y-131024285D01*
X101020571Y-131071904D01*
X101068190Y-131167142D01*
X101068190Y-131548095D01*
X101544381Y-130024285D02*
X101544381Y-130595714D01*
X101544381Y-130310000D02*
X100544381Y-130310000D01*
X100687238Y-130405238D01*
X100782476Y-130500476D01*
X100830095Y-130595714D01*
X106624381Y-120118095D02*
X105624381Y-120118095D01*
X105624381Y-119737142D01*
X105672000Y-119641904D01*
X105719619Y-119594285D01*
X105814857Y-119546666D01*
X105957714Y-119546666D01*
X106052952Y-119594285D01*
X106100571Y-119641904D01*
X106148190Y-119737142D01*
X106148190Y-120118095D01*
X105719619Y-119165714D02*
X105672000Y-119118095D01*
X105624381Y-119022857D01*
X105624381Y-118784761D01*
X105672000Y-118689523D01*
X105719619Y-118641904D01*
X105814857Y-118594285D01*
X105910095Y-118594285D01*
X106052952Y-118641904D01*
X106624381Y-119213333D01*
X106624381Y-118594285D01*
X101290381Y-120118095D02*
X100290381Y-120118095D01*
X100290381Y-119737142D01*
X100338000Y-119641904D01*
X100385619Y-119594285D01*
X100480857Y-119546666D01*
X100623714Y-119546666D01*
X100718952Y-119594285D01*
X100766571Y-119641904D01*
X100814190Y-119737142D01*
X100814190Y-120118095D01*
X100623714Y-118689523D02*
X101290381Y-118689523D01*
X100242762Y-118927619D02*
X100957048Y-119165714D01*
X100957048Y-118546666D01*
X106751381Y-131548095D02*
X105751381Y-131548095D01*
X105751381Y-131167142D01*
X105799000Y-131071904D01*
X105846619Y-131024285D01*
X105941857Y-130976666D01*
X106084714Y-130976666D01*
X106179952Y-131024285D01*
X106227571Y-131071904D01*
X106275190Y-131167142D01*
X106275190Y-131548095D01*
X105751381Y-130071904D02*
X105751381Y-130548095D01*
X106227571Y-130595714D01*
X106179952Y-130548095D01*
X106132333Y-130452857D01*
X106132333Y-130214761D01*
X106179952Y-130119523D01*
X106227571Y-130071904D01*
X106322810Y-130024285D01*
X106560905Y-130024285D01*
X106656143Y-130071904D01*
X106703762Y-130119523D01*
X106751381Y-130214761D01*
X106751381Y-130452857D01*
X106703762Y-130548095D01*
X106656143Y-130595714D01*
%LPC*%
D12*
X97309488Y-124279438D03*
X98409488Y-124279438D03*
X118449000Y-125349000D03*
X119549000Y-125349000D03*
X98409488Y-125476000D03*
X97309488Y-125476000D03*
X119549000Y-126492000D03*
X118449000Y-126492000D03*
X87995488Y-126184438D03*
X86895488Y-126184438D03*
X109135000Y-127254000D03*
X108035000Y-127254000D03*
X98467000Y-126873000D03*
X97367000Y-126873000D03*
X119549000Y-127762000D03*
X118449000Y-127762000D03*
X98409488Y-122882438D03*
X97309488Y-122882438D03*
X119549000Y-123952000D03*
X118449000Y-123952000D03*
D13*
X126365000Y-95885000D03*
D14*
X128905000Y-95885000D03*
X126365000Y-98425000D03*
X128905000Y-98425000D03*
X126365000Y-100965000D03*
X128905000Y-100965000D03*
X126365000Y-103505000D03*
X128905000Y-103505000D03*
X126365000Y-106045000D03*
X128905000Y-106045000D03*
X126365000Y-108585000D03*
X128905000Y-108585000D03*
X126365000Y-111125000D03*
X128905000Y-111125000D03*
X126365000Y-113665000D03*
X128905000Y-113665000D03*
X126365000Y-116205000D03*
X128905000Y-116205000D03*
X126365000Y-118745000D03*
X128905000Y-118745000D03*
X126365000Y-121285000D03*
X128905000Y-121285000D03*
X126365000Y-123825000D03*
X128905000Y-123825000D03*
X126365000Y-126365000D03*
X128905000Y-126365000D03*
X126365000Y-128905000D03*
X128905000Y-128905000D03*
X126365000Y-131445000D03*
X128905000Y-131445000D03*
X126365000Y-133985000D03*
X128905000Y-133985000D03*
X126365000Y-136525000D03*
X128905000Y-136525000D03*
X126365000Y-139065000D03*
X128905000Y-139065000D03*
X126365000Y-141605000D03*
X128905000Y-141605000D03*
X126365000Y-144145000D03*
X128905000Y-144145000D03*
X126365000Y-146685000D03*
X128905000Y-146685000D03*
X126365000Y-149225000D03*
X128905000Y-149225000D03*
X126365000Y-151765000D03*
X128905000Y-151765000D03*
D13*
X78105000Y-95885000D03*
D14*
X80645000Y-95885000D03*
X78105000Y-98425000D03*
X80645000Y-98425000D03*
X78105000Y-100965000D03*
X80645000Y-100965000D03*
X78105000Y-103505000D03*
X80645000Y-103505000D03*
X78105000Y-106045000D03*
X80645000Y-106045000D03*
X78105000Y-108585000D03*
X80645000Y-108585000D03*
X78105000Y-111125000D03*
X80645000Y-111125000D03*
X78105000Y-113665000D03*
X80645000Y-113665000D03*
X78105000Y-116205000D03*
X80645000Y-116205000D03*
X78105000Y-118745000D03*
X80645000Y-118745000D03*
X78105000Y-121285000D03*
X80645000Y-121285000D03*
X78105000Y-123825000D03*
X80645000Y-123825000D03*
X78105000Y-126365000D03*
X80645000Y-126365000D03*
X78105000Y-128905000D03*
X80645000Y-128905000D03*
X78105000Y-131445000D03*
X80645000Y-131445000D03*
X78105000Y-133985000D03*
X80645000Y-133985000D03*
X78105000Y-136525000D03*
X80645000Y-136525000D03*
X78105000Y-139065000D03*
X80645000Y-139065000D03*
X78105000Y-141605000D03*
X80645000Y-141605000D03*
X78105000Y-144145000D03*
X80645000Y-144145000D03*
X78105000Y-146685000D03*
X80645000Y-146685000D03*
X78105000Y-149225000D03*
X80645000Y-149225000D03*
X78105000Y-151765000D03*
X80645000Y-151765000D03*
D15*
X95602488Y-126162438D03*
X95602488Y-125512438D03*
X95602488Y-124862438D03*
X95602488Y-124212438D03*
X95602488Y-123562438D03*
X95602488Y-122912438D03*
X95602488Y-122262438D03*
X95602488Y-121612438D03*
X89702488Y-121612438D03*
X89702488Y-122262438D03*
X89702488Y-122912438D03*
X89702488Y-123562438D03*
X89702488Y-124212438D03*
X89702488Y-124862438D03*
X89702488Y-125512438D03*
X89702488Y-126162438D03*
X116742000Y-127254000D03*
X116742000Y-126604000D03*
X116742000Y-125954000D03*
X116742000Y-125304000D03*
X116742000Y-124654000D03*
X116742000Y-124004000D03*
X116742000Y-123354000D03*
X116742000Y-122704000D03*
X110842000Y-122704000D03*
X110842000Y-123354000D03*
X110842000Y-124004000D03*
X110842000Y-124654000D03*
X110842000Y-125304000D03*
X110842000Y-125954000D03*
X110842000Y-126604000D03*
X110842000Y-127254000D03*
D16*
X83820000Y-118745000D03*
D17*
X83820000Y-121285000D03*
X83820000Y-123825000D03*
X83820000Y-126365000D03*
X83820000Y-128905000D03*
X83820000Y-131445000D03*
D13*
X98298000Y-130784600D03*
D14*
X98298000Y-133324600D03*
X95758000Y-130784600D03*
X95758000Y-133324600D03*
X93218000Y-130784600D03*
X93218000Y-133324600D03*
X90678000Y-130784600D03*
X90678000Y-133324600D03*
X88138000Y-130784600D03*
X88138000Y-133324600D03*
D13*
X108712000Y-119380000D03*
D14*
X108712000Y-116840000D03*
X111252000Y-119380000D03*
X111252000Y-116840000D03*
X113792000Y-119380000D03*
X113792000Y-116840000D03*
X116332000Y-119380000D03*
X116332000Y-116840000D03*
X118872000Y-119380000D03*
X118872000Y-116840000D03*
D13*
X88138000Y-119380000D03*
D14*
X88138000Y-116840000D03*
X90678000Y-119380000D03*
X90678000Y-116840000D03*
X93218000Y-119380000D03*
X93218000Y-116840000D03*
X95758000Y-119380000D03*
X95758000Y-116840000D03*
X98298000Y-119380000D03*
X98298000Y-116840000D03*
D13*
X118872000Y-130784600D03*
D14*
X118872000Y-133324600D03*
X116332000Y-130784600D03*
X116332000Y-133324600D03*
X113792000Y-130784600D03*
X113792000Y-133324600D03*
X111252000Y-130784600D03*
X111252000Y-133324600D03*
X108712000Y-130784600D03*
X108712000Y-133324600D03*
M02*
