G04 #@! TF.FileFunction,Soldermask,Bot*
%FSLAX46Y46*%
G04 Gerber Fmt 4.6, Leading zero omitted, Abs format (unit mm)*
G04 Created by KiCad (PCBNEW 4.0.3-stable) date 11/17/16 00:27:15*
%MOMM*%
%LPD*%
G01*
G04 APERTURE LIST*
%ADD10C,0.100000*%
%ADD11R,2.127200X2.127200*%
%ADD12O,2.127200X2.127200*%
%ADD13R,2.432000X2.127200*%
%ADD14O,2.432000X2.127200*%
%ADD15R,1.695400X3.194000*%
G04 APERTURE END LIST*
D10*
D11*
X126365000Y-95885000D03*
D12*
X128905000Y-95885000D03*
X126365000Y-98425000D03*
X128905000Y-98425000D03*
X126365000Y-100965000D03*
X128905000Y-100965000D03*
X126365000Y-103505000D03*
X128905000Y-103505000D03*
X126365000Y-106045000D03*
X128905000Y-106045000D03*
X126365000Y-108585000D03*
X128905000Y-108585000D03*
X126365000Y-111125000D03*
X128905000Y-111125000D03*
X126365000Y-113665000D03*
X128905000Y-113665000D03*
X126365000Y-116205000D03*
X128905000Y-116205000D03*
X126365000Y-118745000D03*
X128905000Y-118745000D03*
X126365000Y-121285000D03*
X128905000Y-121285000D03*
X126365000Y-123825000D03*
X128905000Y-123825000D03*
X126365000Y-126365000D03*
X128905000Y-126365000D03*
X126365000Y-128905000D03*
X128905000Y-128905000D03*
X126365000Y-131445000D03*
X128905000Y-131445000D03*
X126365000Y-133985000D03*
X128905000Y-133985000D03*
X126365000Y-136525000D03*
X128905000Y-136525000D03*
X126365000Y-139065000D03*
X128905000Y-139065000D03*
X126365000Y-141605000D03*
X128905000Y-141605000D03*
X126365000Y-144145000D03*
X128905000Y-144145000D03*
X126365000Y-146685000D03*
X128905000Y-146685000D03*
X126365000Y-149225000D03*
X128905000Y-149225000D03*
X126365000Y-151765000D03*
X128905000Y-151765000D03*
D11*
X78105000Y-95885000D03*
D12*
X80645000Y-95885000D03*
X78105000Y-98425000D03*
X80645000Y-98425000D03*
X78105000Y-100965000D03*
X80645000Y-100965000D03*
X78105000Y-103505000D03*
X80645000Y-103505000D03*
X78105000Y-106045000D03*
X80645000Y-106045000D03*
X78105000Y-108585000D03*
X80645000Y-108585000D03*
X78105000Y-111125000D03*
X80645000Y-111125000D03*
X78105000Y-113665000D03*
X80645000Y-113665000D03*
X78105000Y-116205000D03*
X80645000Y-116205000D03*
X78105000Y-118745000D03*
X80645000Y-118745000D03*
X78105000Y-121285000D03*
X80645000Y-121285000D03*
X78105000Y-123825000D03*
X80645000Y-123825000D03*
X78105000Y-126365000D03*
X80645000Y-126365000D03*
X78105000Y-128905000D03*
X80645000Y-128905000D03*
X78105000Y-131445000D03*
X80645000Y-131445000D03*
X78105000Y-133985000D03*
X80645000Y-133985000D03*
X78105000Y-136525000D03*
X80645000Y-136525000D03*
X78105000Y-139065000D03*
X80645000Y-139065000D03*
X78105000Y-141605000D03*
X80645000Y-141605000D03*
X78105000Y-144145000D03*
X80645000Y-144145000D03*
X78105000Y-146685000D03*
X80645000Y-146685000D03*
X78105000Y-149225000D03*
X80645000Y-149225000D03*
X78105000Y-151765000D03*
X80645000Y-151765000D03*
D13*
X83820000Y-118745000D03*
D14*
X83820000Y-121285000D03*
X83820000Y-123825000D03*
X83820000Y-126365000D03*
X83820000Y-128905000D03*
X83820000Y-131445000D03*
D11*
X98298000Y-130784600D03*
D12*
X98298000Y-133324600D03*
X95758000Y-130784600D03*
X95758000Y-133324600D03*
X93218000Y-130784600D03*
X93218000Y-133324600D03*
X90678000Y-130784600D03*
X90678000Y-133324600D03*
X88138000Y-130784600D03*
X88138000Y-133324600D03*
D11*
X108712000Y-119380000D03*
D12*
X108712000Y-116840000D03*
X111252000Y-119380000D03*
X111252000Y-116840000D03*
X113792000Y-119380000D03*
X113792000Y-116840000D03*
X116332000Y-119380000D03*
X116332000Y-116840000D03*
X118872000Y-119380000D03*
X118872000Y-116840000D03*
D11*
X88138000Y-119380000D03*
D12*
X88138000Y-116840000D03*
X90678000Y-119380000D03*
X90678000Y-116840000D03*
X93218000Y-119380000D03*
X93218000Y-116840000D03*
X95758000Y-119380000D03*
X95758000Y-116840000D03*
X98298000Y-119380000D03*
X98298000Y-116840000D03*
D11*
X118872000Y-130784600D03*
D12*
X118872000Y-133324600D03*
X116332000Y-130784600D03*
X116332000Y-133324600D03*
X113792000Y-130784600D03*
X113792000Y-133324600D03*
X111252000Y-130784600D03*
X111252000Y-133324600D03*
X108712000Y-130784600D03*
X108712000Y-133324600D03*
D15*
X105410000Y-151917400D03*
X107950000Y-151917400D03*
X110490000Y-151917400D03*
X113030000Y-151917400D03*
X115570000Y-151917400D03*
X118110000Y-151917400D03*
M02*
